<svg xmlns="http://www.w3.org/2000/svg" xmlns:xlink="http://www.w3.org/1999/xlink"><symbol id="icon-arr-down" viewBox="0 0 39.624 22.624"><path d="M39.612 2.812l-19.8 19.8-19.8-19.8 2.8-2.805 17.017 17.017L36.823.03z" fill-rule="evenodd"/></symbol><symbol id="icon-arr-right" viewBox="0 0 22.624 39.624"><path d="M2.812.012l19.8 19.8-19.8 19.8-2.8-2.8 17.017-17.017L.035 2.801z" fill-rule="evenodd"/></symbol><symbol id="icon-cart" viewBox="0 0 28 32"><path d="M27.691 30.948l-2.432-23.16a.953.953 0 00-.947-.854H19.74V5.892A5.899 5.899 0 0013.848 0a5.899 5.899 0 00-5.892 5.892v1.042H3.385a.953.953 0 00-.948.853L.005 30.948A.954.954 0 00.952 32h25.792a.952.952 0 00.947-1.052zM9.861 5.892a3.992 3.992 0 013.987-3.987 3.992 3.992 0 013.987 3.987v1.042H9.861V5.892zM2.01 30.095L4.242 8.84h3.714v2.099a.953.953 0 001.905 0V8.839h7.974v2.099a.953.953 0 001.905 0V8.839h3.714l2.232 21.256H2.01z"/></symbol><symbol id="icon-mail" viewBox="0 0 15 13"><path d="M14.795 1.338a1.173 1.173 0 00-.968-.514H1.174c-.393 0-.74.198-.954.496l7.304 6.09 7.271-6.072z"/><path d="M.001 2.358v8.646c0 .645.528 1.172 1.172 1.172h12.654c.644 0 1.172-.527 1.172-1.172V2.39L7.523 8.63.001 2.359z"/></symbol><symbol id="icon-menu-close" viewBox="0 0 20 20"><path d="M11.173 10.006l8.573-8.573A.833.833 0 1018.568.255L9.995 8.828 1.422.255A.833.833 0 00.244 1.433l8.573 8.573-8.573 8.573a.833.833 0 001.178 1.178l8.573-8.574 8.573 8.574a.833.833 0 001.178-1.178l-8.573-8.573z"/></symbol><symbol id="icon-menu-open" viewBox="0 0 32 19"><path d="M0 16h32v3H0v-3zm0-8h32v3H0V8zm0-8h32v3H0V0z" fill-rule="evenodd"/></symbol><symbol id="icon-percent" viewBox="0 0 24 25"><path d="M18.368 0l1.5.852L5.594 25l-1.5-.852zM5.475.068A5.369 5.369 0 110 5.434 5.423 5.423 0 015.475.067zm0 2.236a3.132 3.132 0 11-3.194 3.131A3.163 3.163 0 015.475 2.3zm13.05 11.809a5.368 5.368 0 11-5.476 5.367 5.422 5.422 0 015.476-5.368zm0 2.236a3.132 3.132 0 11-3.194 3.131 3.163 3.163 0 013.194-3.132z" fill-rule="evenodd"/></symbol><symbol id="icon-plus" viewBox="0 0 24 24"><path d="M24 12.941H13.059V24h-2V12.941H0v-2h11.059V0h2v10.941H24v2z" fill-rule="evenodd"/></symbol><symbol id="icon-profile" viewBox="0 0 30 32"><path d="M14.91 18.024C5.295 18.024 0 22.572 0 30.832 0 31.477.523 32 1.168 32h27.484c.645 0 1.168-.523 1.168-1.168 0-8.26-5.295-12.808-14.91-12.808zM2.378 29.664c.46-6.176 4.67-9.304 12.532-9.304s12.072 3.128 12.532 9.304H2.378zM14.909 0c-4.417 0-7.747 3.397-7.747 7.902 0 4.637 3.475 8.41 7.747 8.41 4.271 0 7.747-3.773 7.747-8.41 0-4.505-3.33-7.902-7.747-7.902zm0 13.976c-2.984 0-5.411-2.725-5.411-6.073 0-3.226 2.276-5.567 5.41-5.567 3.086 0 5.412 2.393 5.412 5.567 0 3.348-2.427 6.073-5.411 6.073z"/></symbol><symbol id="icon-sidebar-toggle" viewBox="0 0 28 20"><path d="M8 20v-4h20v4H8zM8 8h20v4H8V8zm0-8h20v4H8V0zM5 4H0V0h5v4zm0 8H0V8h5v4zm0 8H0v-4h5v4z" fill-rule="evenodd"/></symbol><symbol id="icon-soc-fb" viewBox="0 0 8 15"><path d="M5.286 15V8.438h2.175l.414-2.716H5.286v-1.76c0-.743.362-1.467 1.522-1.467h1.178V.184A14.306 14.306 0 005.896 0C3.764 0 2.37 1.3 2.37 3.654V5.72H0v2.716h2.37V15L5.286 15z"/></symbol><symbol id="icon-soc-ins" viewBox="0 0 15 15"><path d="M7.5 0C5.463 0 5.208.01 4.408.045c-.799.038-1.342.163-1.82.349a3.673 3.673 0 00-1.33.865 3.66 3.66 0 00-.864 1.329c-.186.478-.312 1.021-.349 1.82C.008 5.208 0 5.462 0 7.5c0 2.037.01 2.292.045 3.092.038.798.163 1.342.349 1.82.191.493.448.912.865 1.33a3.67 3.67 0 001.329.864c.478.185 1.022.312 1.82.349.8.037 1.054.045 3.092.045 2.037 0 2.292-.01 3.092-.045.798-.037 1.342-.164 1.82-.349a3.688 3.688 0 001.33-.865c.415-.417.674-.834.864-1.329.185-.478.312-1.022.349-1.82.037-.8.045-1.055.045-3.092s-.01-2.292-.045-3.092c-.037-.798-.164-1.343-.349-1.82a3.682 3.682 0 00-.865-1.33 3.654 3.654 0 00-1.329-.864c-.478-.186-1.022-.312-1.82-.349C9.792.008 9.537 0 7.5 0zm0 1.35c2.002 0 2.24.01 3.031.044.731.035 1.128.156 1.392.26.351.135.6.298.864.56.262.262.424.512.56.863.102.264.225.66.258 1.392.036.791.044 1.028.044 3.031 0 2.002-.01 2.24-.046 3.031-.039.731-.16 1.128-.264 1.392-.14.351-.299.6-.562.864a2.342 2.342 0 01-.862.56c-.262.102-.666.225-1.397.258-.796.036-1.03.044-3.037.044-2.007 0-2.241-.01-3.037-.046-.732-.039-1.135-.16-1.397-.264-.356-.14-.6-.299-.862-.562a2.278 2.278 0 01-.563-.862c-.103-.262-.224-.666-.262-1.397-.028-.787-.038-1.03-.038-3.027 0-1.998.01-2.242.038-3.038.038-.732.16-1.134.262-1.397.132-.356.3-.6.563-.863.262-.262.506-.43.862-.561.262-.104.657-.226 1.388-.263.797-.028 1.031-.038 3.037-.038l.028.019zm0 2.299a3.851 3.851 0 100 7.702 3.851 3.851 0 000-7.702zM7.5 10a2.5 2.5 0 11-.001-4.999A2.5 2.5 0 017.5 10zm4.904-6.503a.9.9 0 11-1.802-.001.9.9 0 011.802 0z"/></symbol><symbol id="icon-soc-tgm" viewBox="0 0 14 11"><path d="M13.073.143C12.926.023 12.7-.002 12.6 0c-.46.008-1.166.254-4.56 1.665-.62.258-1.56.659-2.822 1.203A1266.44 1266.44 0 00.912 4.735c-.578.23-.882.456-.909.676-.046.371.418.518 1.052.718l.269.085c.624.203 1.464.44 1.9.449.396.01.837-.153 1.326-.49 3.329-2.245 5.047-3.382 5.155-3.407.076-.017.182-.038.253.025.025.022.04.05.05.08a.298.298 0 01.007.136c-.06.258-3.188 3.102-3.368 3.29a11.1 11.1 0 01-.286.282c-.58.559-1.017.979.023 1.663 1.044.689 1.652 1.128 2.728 1.834.143.094.28.191.415.287.506.36.96.684 1.52.631.327-.029.664-.336.836-1.252.405-2.165 1.202-6.854 1.385-8.787a2.147 2.147 0 00-.02-.481.517.517 0 00-.175-.331z"/></symbol><symbol id="icon-soc-tw" viewBox="0 0 14 11"><path d="M13.266 1.31a5.46 5.46 0 01-1.565.437A2.787 2.787 0 0012.9.212c-.527.313-1.11.54-1.732.667A2.71 2.71 0 009.622.037c-.592-.1-1.2.003-1.73.29-.529.289-.95.747-1.197 1.304a2.821 2.821 0 00-.171 1.776C4.259 3.298 2.252 2.19.908.517A2.757 2.757 0 00.54 1.911c0 .964.482 1.812 1.212 2.31a2.679 2.679 0 01-1.234-.348v.034c0 .641.218 1.262.616 1.758s.953.837 1.57.964c-.4.11-.819.126-1.225.048.175.552.514 1.034.972 1.38a2.702 2.702 0 001.577.547A5.402 5.402 0 010 9.755 7.65 7.65 0 004.185 11c5.014 0 7.753-4.227 7.753-7.886 0-.119 0-.237-.009-.356a5.56 5.56 0 001.363-1.436l-.026-.012z"/></symbol><symbol id="icon-soc-vk" viewBox="0 0 15 9"><path d="M12.773 9h1.638c.314-.001.526-.113.577-.333a.68.68 0 00-.037-.371c-.144-.466-.684-1.138-1.384-1.939-.382-.448-.955-.944-1.13-1.184-.238-.322-.174-.45 0-.738 0 0 2.005-2.85 2.211-3.811.112-.353 0-.608-.493-.608h-1.638c-.414 0-.604.224-.716.464 0 0-.842 2.05-2.02 3.38-.381.383-.557.512-.763.512-.095 0-.255-.129-.255-.48V.608C8.763.192 8.636 0 8.286 0H5.709a.396.396 0 00-.413.385c0 .153.086.261.196.4.178.223.417.524.457 1.216v2.436c0 .528-.096.624-.303.624-.556 0-1.909-2.066-2.72-4.42C2.768.193 2.609 0 2.195 0H.557C.096.001 0 .225 0 .465c0 .448.558 2.61 2.594 5.492 1.35 1.97 3.276 3.028 5.01 3.028 1.05 0 1.176-.24 1.176-.641v-1.49c0-.464.096-.56.43-.56.11 0 .261.027.488.15.263.142.628.415 1.15.923C11.96 8.504 12.153 9 12.773 9z"/></symbol><symbol id="icon-zoom" viewBox="0 0 32 32"><path d="M14.092 0C6.322 0 0 6.322 0 14.092c0 7.77 6.322 14.092 14.092 14.092 7.77 0 14.092-6.321 14.092-14.092C28.184 6.322 21.863 0 14.092 0zm0 25.583c-6.336 0-11.49-5.155-11.49-11.49 0-6.337 5.154-11.491 11.49-11.491s11.49 5.154 11.49 11.49-5.154 11.49-11.49 11.49z"/><path d="M31.619 29.78l-7.458-7.458a1.3 1.3 0 10-1.84 1.839l7.458 7.458a1.296 1.296 0 001.84 0 1.3 1.3 0 000-1.84z"/></symbol> <view id="icon-arr-down-view-black" viewBox="0 0 39.624 22.624"/><view id="icon-arr-down-view-white" viewBox="0 32.623999999999995 39.624 22.624"/><view id="icon-arr-right-view-black" viewBox="0 65.24799999999999 22.624 39.624"/><view id="icon-arr-right-view-white" viewBox="0 114.87199999999999 22.624 39.624"/><view id="icon-cart-view-black" viewBox="0 164.49599999999998 28 32"/><view id="icon-cart-view-white" viewBox="0 206.49599999999998 28 32"/><view id="icon-mail-view-black" viewBox="0 248.49599999999998 15 13"/><view id="icon-mail-view-white" viewBox="0 271.496 15 13"/><view id="icon-menu-close-view-black" viewBox="0 294.496 20 20"/><view id="icon-menu-close-view-white" viewBox="0 324.496 20 20"/><view id="icon-menu-open-view-black" viewBox="0 354.496 32 19"/><view id="icon-menu-open-view-white" viewBox="0 383.496 32 19"/><view id="icon-percent-view-black" viewBox="0 412.496 24 25"/><view id="icon-percent-view-white" viewBox="0 447.496 24 25"/><view id="icon-plus-view-black" viewBox="0 482.496 24 24"/><view id="icon-plus-view-white" viewBox="0 516.496 24 24"/><view id="icon-profile-view-black" viewBox="0 550.496 30 32"/><view id="icon-profile-view-white" viewBox="0 592.496 30 32"/><view id="icon-sidebar-toggle-view-black" viewBox="0 634.496 28 20"/><view id="icon-sidebar-toggle-view-white" viewBox="0 664.496 28 20"/><view id="icon-soc-fb-view-black" viewBox="0 694.496 8 15"/><view id="icon-soc-fb-view-white" viewBox="0 719.496 8 15"/><view id="icon-soc-ins-view-black" viewBox="0 744.496 15 15"/><view id="icon-soc-ins-view-white" viewBox="0 769.496 15 15"/><view id="icon-soc-tgm-view-black" viewBox="0 794.496 14 11"/><view id="icon-soc-tgm-view-white" viewBox="0 815.496 14 11"/><view id="icon-soc-tw-view-black" viewBox="0 836.496 14 11"/><view id="icon-soc-tw-view-white" viewBox="0 857.496 14 11"/><view id="icon-soc-vk-view-black" viewBox="0 878.496 15 9"/><view id="icon-soc-vk-view-white" viewBox="0 897.496 15 9"/><view id="icon-zoom-view-black" viewBox="0 916.496 32 32"/><view id="icon-zoom-view-white" viewBox="0 958.496 32 32"/> <use xlink:href="#icon-arr-down" x="0" y="0" width="39.624" height="22.624" style="fill:#1f2020"/><use xlink:href="#icon-arr-down" x="0" y="32.623999999999995" width="39.624" height="22.624" style="fill:#ffffff"/><use xlink:href="#icon-arr-right" x="0" y="65.24799999999999" width="22.624" height="39.624" style="fill:#1f2020"/><use xlink:href="#icon-arr-right" x="0" y="114.87199999999999" width="22.624" height="39.624" style="fill:#ffffff"/><use xlink:href="#icon-cart" x="0" y="164.49599999999998" width="28" height="32" style="fill:#1f2020"/><use xlink:href="#icon-cart" x="0" y="206.49599999999998" width="28" height="32" style="fill:#ffffff"/><use xlink:href="#icon-mail" x="0" y="248.49599999999998" width="15" height="13" style="fill:#1f2020"/><use xlink:href="#icon-mail" x="0" y="271.496" width="15" height="13" style="fill:#ffffff"/><use xlink:href="#icon-menu-close" x="0" y="294.496" width="20" height="20" style="fill:#1f2020"/><use xlink:href="#icon-menu-close" x="0" y="324.496" width="20" height="20" style="fill:#ffffff"/><use xlink:href="#icon-menu-open" x="0" y="354.496" width="32" height="19" style="fill:#1f2020"/><use xlink:href="#icon-menu-open" x="0" y="383.496" width="32" height="19" style="fill:#ffffff"/><use xlink:href="#icon-percent" x="0" y="412.496" width="24" height="25" style="fill:#1f2020"/><use xlink:href="#icon-percent" x="0" y="447.496" width="24" height="25" style="fill:#ffffff"/><use xlink:href="#icon-plus" x="0" y="482.496" width="24" height="24" style="fill:#1f2020"/><use xlink:href="#icon-plus" x="0" y="516.496" width="24" height="24" style="fill:#ffffff"/><use xlink:href="#icon-profile" x="0" y="550.496" width="30" height="32" style="fill:#1f2020"/><use xlink:href="#icon-profile" x="0" y="592.496" width="30" height="32" style="fill:#ffffff"/><use xlink:href="#icon-sidebar-toggle" x="0" y="634.496" width="28" height="20" style="fill:#1f2020"/><use xlink:href="#icon-sidebar-toggle" x="0" y="664.496" width="28" height="20" style="fill:#ffffff"/><use xlink:href="#icon-soc-fb" x="0" y="694.496" width="8" height="15" style="fill:#1f2020"/><use xlink:href="#icon-soc-fb" x="0" y="719.496" width="8" height="15" style="fill:#ffffff"/><use xlink:href="#icon-soc-ins" x="0" y="744.496" width="15" height="15" style="fill:#1f2020"/><use xlink:href="#icon-soc-ins" x="0" y="769.496" width="15" height="15" style="fill:#ffffff"/><use xlink:href="#icon-soc-tgm" x="0" y="794.496" width="14" height="11" style="fill:#1f2020"/><use xlink:href="#icon-soc-tgm" x="0" y="815.496" width="14" height="11" style="fill:#ffffff"/><use xlink:href="#icon-soc-tw" x="0" y="836.496" width="14" height="11" style="fill:#1f2020"/><use xlink:href="#icon-soc-tw" x="0" y="857.496" width="14" height="11" style="fill:#ffffff"/><use xlink:href="#icon-soc-vk" x="0" y="878.496" width="15" height="9" style="fill:#1f2020"/><use xlink:href="#icon-soc-vk" x="0" y="897.496" width="15" height="9" style="fill:#ffffff"/><use xlink:href="#icon-zoom" x="0" y="916.496" width="32" height="32" style="fill:#1f2020"/><use xlink:href="#icon-zoom" x="0" y="958.496" width="32" height="32" style="fill:#ffffff"/></svg>